<?xml version="1.0" standalone="no"?>
<!DOCTYPE svg PUBLIC "-//W3C//DTD SVG 20010904//EN"
 "http://www.w3.org/TR/2001/REC-SVG-20010904/DTD/svg10.dtd">
<svg version="1.0" xmlns="http://www.w3.org/2000/svg"
 width="300.000000pt" height="174.000000pt" viewBox="0 0 300.000000 174.000000"
 preserveAspectRatio="xMidYMid meet">
<metadata>
Created by potrace 1.10, written by Peter Selinger 2001-2011
</metadata>
<g transform="translate(0.000000,174.000000) scale(0.100000,-0.100000)"
fill="#eee81c" stroke="none">
<path d="M2268 1252 c-21 -35 -40 -43 -181 -76 -252 -60 -352 -151 -351 -321
1 -79 22 -147 66 -218 32 -50 104 -107 134 -107 15 0 14 4 -8 27 -38 42 -55
73 -68 131 -7 28 -16 52 -22 52 -5 0 -7 -8 -4 -17 3 -10 8 -36 11 -58 l6 -40
-30 47 c-17 27 -31 52 -31 58 0 5 -4 10 -9 10 -14 0 -20 107 -11 168 5 31 20
71 33 89 51 71 176 130 336 158 19 3 58 14 87 24 l53 18 10 -29 c39 -103 44
-150 26 -212 -29 -96 -87 -155 -138 -141 -21 6 -22 6 -3 -9 16 -13 17 -16 4
-16 -8 0 -28 10 -43 22 l-28 21 12 -21 c16 -29 54 -37 103 -21 65 21 124 109
135 199 6 55 -17 170 -50 243 l-22 48 -17 -29z"/>
<path d="M2049 927 c27 -10 37 -20 47 -52 8 -29 12 -33 13 -17 1 25 -15 63
-33 74 -6 4 -22 8 -36 7 -22 0 -21 -2 9 -12z"/>
<path d="M2030 847 c-68 -40 -100 -69 -116 -105 -16 -40 -12 -98 10 -128 12
-15 14 -13 20 22 4 21 19 54 32 72 27 35 22 41 -14 16 -26 -18 -28 -12 -6 26
9 15 36 37 60 48 39 19 43 20 46 4 7 -28 -12 -70 -38 -86 -23 -16 -64 -83 -64
-107 0 -19 112 104 127 139 11 27 12 41 2 70 -16 51 -19 52 -59 29z"/>
<path d="M1500 810 c-12 -7 -12 -13 -1 -34 21 -38 80 -48 131 -21 18 9 30 24
30 35 0 26 -22 26 -38 -1 -18 -28 -73 -23 -87 9 -11 25 -14 26 -35 12z"/>
<path d="M551 720 c-10 -6 -14 -36 -15 -109 -1 -96 0 -102 19 -99 16 2 21 12
23 46 l3 42 50 0 50 0 -7 -45 c-6 -45 3 -57 32 -37 12 8 14 195 2 208 -17 16
-38 -19 -32 -52 6 -33 6 -34 -29 -34 -19 0 -42 -3 -51 -6 -13 -5 -16 2 -16 39
0 49 -8 61 -29 47z"/>
<path d="M825 716 c-48 -21 -68 -51 -73 -109 -3 -43 -1 -55 16 -70 26 -24 92
-33 121 -17 55 29 81 135 44 178 -24 27 -71 35 -108 18z m70 -40 c38 -27 -1
-126 -51 -126 -49 0 -67 46 -39 100 21 41 56 51 90 26z"/>
<path d="M994 706 c-3 -8 -6 -54 -7 -103 l-2 -88 53 1 c85 3 125 42 85 86 -13
14 -14 21 -5 30 34 34 -15 88 -80 88 -24 0 -41 -5 -44 -14z m70 -26 c32 -12
34 -36 4 -44 -34 -9 -35 -8 -40 19 -7 36 -2 40 36 25z m36 -95 c20 -12 -11
-35 -46 -35 -29 0 -34 3 -34 23 0 13 3 26 6 29 6 6 55 -5 74 -17z"/>
<path d="M1185 712 c-6 -4 -10 -48 -10 -99 l0 -93 56 0 c45 0 60 4 77 23 43
45 21 95 -46 104 -40 5 -42 7 -42 39 0 33 -13 43 -35 26z m100 -113 c15 -15
-8 -44 -39 -47 -24 -3 -26 0 -26 33 0 35 1 37 28 30 15 -3 31 -11 37 -16z"/>
<path d="M1322 708 c-19 -19 -14 -28 17 -28 l29 0 0 -65 c-1 -45 -4 -65 -13
-65 -16 0 -38 -27 -28 -33 5 -3 33 -2 63 1 39 5 55 11 55 22 0 8 -10 16 -23
18 -21 3 -22 8 -21 62 2 48 5 59 20 63 11 3 19 12 19 21 0 13 -11 16 -53 16
-29 0 -58 -5 -65 -12z"/>
<path d="M1475 710 c-3 -5 -4 -52 -3 -105 3 -79 6 -95 19 -95 18 0 91 67 126
115 l21 30 -5 -74 c-6 -68 -5 -73 13 -69 17 3 19 14 22 106 3 126 -4 129 -82
32 -31 -38 -61 -70 -65 -70 -5 0 -6 20 -4 44 3 25 3 56 -1 70 -6 26 -29 35
-41 16z"/>
<path d="M2406 713 c-4 -5 -69 -10 -144 -13 -175 -7 -210 -23 -260 -118 -19
-35 -31 -66 -28 -69 3 -3 26 12 50 35 29 27 57 43 83 47 71 12 82 21 35 29
-24 3 -48 3 -54 0 -6 -4 -9 -1 -6 6 8 26 80 41 196 39 61 -1 112 -5 112 -9 0
-18 -30 -77 -47 -91 -32 -27 -96 -48 -165 -54 -79 -7 -95 6 -36 29 29 12 38
20 30 28 -17 17 -74 -8 -118 -53 l-39 -41 115 5 c71 3 133 11 162 22 59 21
113 79 128 137 6 24 13 51 16 61 5 17 -16 24 -30 10z"/>
<path d="M2332 448 c-13 -13 -18 -219 -6 -231 4 -3 15 -2 25 4 14 7 19 21 19
48 0 44 10 51 71 51 l40 0 -6 -51 c-5 -48 -5 -50 17 -47 22 3 23 7 26 121 2
111 2 117 -17 117 -23 0 -32 -23 -26 -67 4 -32 3 -33 -35 -33 -21 0 -45 -3
-54 -6 -12 -5 -15 5 -18 47 -3 54 -14 69 -36 47z"/>
<path d="M1325 439 c-14 -21 -11 -211 3 -216 23 -9 44 19 39 52 -10 64 19 75
54 19 12 -20 22 -43 22 -50 0 -20 29 -27 45 -11 12 13 12 18 -1 43 -9 16 -25
39 -37 52 l-21 22 21 30 c12 17 26 30 31 30 15 0 10 30 -6 36 -19 8 -41 -10
-58 -45 -7 -14 -20 -27 -29 -29 -13 -2 -17 5 -20 35 -3 38 -28 57 -43 32z"/>
<path d="M1575 431 c-42 -25 -65 -63 -65 -105 0 -37 17 -86 35 -98 15 -11 74
-9 96 3 17 8 23 7 34 -8 11 -14 16 -15 26 -6 10 10 10 21 -1 52 -8 26 -11 61
-7 99 6 56 5 60 -19 71 -35 16 -64 14 -99 -8z m74 -91 c0 -67 -1 -71 -25 -80
-32 -13 -30 -13 -48 6 -10 9 -16 33 -16 59 0 35 5 48 26 64 50 39 62 30 63
-49z"/>
<path d="M1780 431 c-5 -11 -10 -27 -10 -36 0 -8 -9 -41 -20 -72 -26 -74 -26
-103 -1 -103 15 0 22 14 36 75 9 41 21 73 26 70 5 -4 9 -15 9 -25 0 -11 5 -42
11 -70 8 -37 15 -50 29 -50 24 0 34 14 60 88 26 72 34 68 45 -25 7 -61 19 -79
45 -63 10 6 8 25 -8 91 -12 46 -24 97 -27 112 -4 22 -11 28 -28 25 -18 -2 -26
-17 -46 -80 -14 -43 -28 -78 -31 -78 -4 0 -13 28 -20 63 -6 34 -16 70 -21 80
-13 23 -36 22 -49 -2z"/>
<path d="M2055 438 c-3 -8 -4 -59 -3 -113 3 -88 6 -100 22 -103 20 -4 80 48
128 113 l31 40 -6 -77 c-6 -79 -1 -93 27 -82 22 9 24 234 2 234 -8 0 -45 -37
-83 -82 l-68 -83 -5 80 c-4 66 -8 80 -23 83 -9 2 -19 -3 -22 -10z"/>
</g>
</svg>
